{
    "asset" : {
        "generator" : "Khronos glTF Blender I/O v3.3.27",
        "version" : "2.0"
    },
    "scene" : 0,
    "scenes" : [
        {
            "name" : "Scene",
            "nodes" : [
                0,
                1,
                2
            ]
        }
    ],
    "nodes" : [
        {
            "name" : "Light"
        },
        {
            "mesh" : 0,
            "name" : "Curve",
            "scale" : [
                4.656179428100586,
                4.656179428100586,
                4.656179428100586
            ]
        },
        {
            "mesh" : 1,
            "name" : "Curve.001",
            "rotation" : [
                0.7071068286895752,
                0,
                0,
                0.7071068286895752
            ],
            "scale" : [
                3.7080628871917725,
                3.7080628871917725,
                3.7080628871917725
            ],
            "translation" : [
                0.0961824506521225,
                0.6494308710098267,
                -0.13715863227844238
            ]
        }
    ],
    "materials" : [
        {
            "doubleSided" : true,
            "name" : "SVGMat",
            "pbrMetallicRoughness" : {}
        },
        {
            "doubleSided" : true,
            "name" : "SVGMat.001",
            "pbrMetallicRoughness" : {}
        }
    ],
    "meshes" : [
        {
            "name" : "Curve",
            "primitives" : [
                {
                    "attributes" : {
                        "POSITION" : 0,
                        "NORMAL" : 1,
                        "TEXCOORD_0" : 2
                    },
                    "indices" : 3,
                    "material" : 0
                }
            ]
        },
        {
            "name" : "Curve.001",
            "primitives" : [
                {
                    "attributes" : {
                        "POSITION" : 4,
                        "NORMAL" : 5,
                        "TEXCOORD_0" : 6
                    },
                    "indices" : 7,
                    "material" : 1
                }
            ]
        }
    ],
    "accessors" : [
        {
            "bufferView" : 0,
            "componentType" : 5126,
            "count" : 645,
            "max" : [
                0.0886714905500412,
                0.13803723454475403,
                -2.4749315343797207e-06
            ],
            "min" : [
                3.961380571126938e-06,
                0,
                -0.0636744350194931
            ],
            "type" : "VEC3"
        },
        {
            "bufferView" : 1,
            "componentType" : 5126,
            "count" : 645,
            "type" : "VEC3"
        },
        {
            "bufferView" : 2,
            "componentType" : 5126,
            "count" : 645,
            "type" : "VEC2"
        },
        {
            "bufferView" : 3,
            "componentType" : 5123,
            "count" : 993,
            "type" : "SCALAR"
        },
        {
            "bufferView" : 4,
            "componentType" : 5126,
            "count" : 15248,
            "max" : [
                0.05759550631046295,
                0.0287882462143898,
                -1.563435944262892e-06
            ],
            "min" : [
                0,
                -0.028801381587982178,
                -0.059826698154211044
            ],
            "type" : "VEC3"
        },
        {
            "bufferView" : 5,
            "componentType" : 5126,
            "count" : 15248,
            "type" : "VEC3"
        },
        {
            "bufferView" : 6,
            "componentType" : 5126,
            "count" : 15248,
            "type" : "VEC2"
        },
        {
            "bufferView" : 7,
            "componentType" : 5123,
            "count" : 22812,
            "type" : "SCALAR"
        }
    ],
    "bufferViews" : [
        {
            "buffer" : 0,
            "byteLength" : 7740,
            "byteOffset" : 0,
            "target" : 34962
        },
        {
            "buffer" : 0,
            "byteLength" : 7740,
            "byteOffset" : 7740,
            "target" : 34962
        },
        {
            "buffer" : 0,
            "byteLength" : 5160,
            "byteOffset" : 15480,
            "target" : 34962
        },
        {
            "buffer" : 0,
            "byteLength" : 1986,
            "byteOffset" : 20640,
            "target" : 34963
        },
        {
            "buffer" : 0,
            "byteLength" : 182976,
            "byteOffset" : 22628,
            "target" : 34962
        },
        {
            "buffer" : 0,
            "byteLength" : 182976,
            "byteOffset" : 205604,
            "target" : 34962
        },
        {
            "buffer" : 0,
            "byteLength" : 121984,
            "byteOffset" : 388580,
            "target" : 34962
        },
        {
            "buffer" : 0,
            "byteLength" : 45624,
            "byteOffset" : 510564,
            "target" : 34963
        }
    ],
    "buffers" : [
        {
            "byteLength" : 556188,
            "uri" : "data:application/octet-stream;base64,"
        }
    ]
}
